<?xml version="1.0" encoding="utf-8"?>
<!-- Generator: Adobe Illustrator 16.0.0, SVG Export Plug-In . SVG Version: 6.00 Build 0)  -->
<!DOCTYPE svg PUBLIC "-//W3C//DTD SVG 1.1//EN" "http://www.w3.org/Graphics/SVG/1.1/DTD/svg11.dtd">
<svg version="1.1" id="Layer_1" xmlns="http://www.w3.org/2000/svg" xmlns:xlink="http://www.w3.org/1999/xlink" x="0px" y="0px"
	 width="612px" height="288px" viewBox="0 0 612 288" enable-background="new 0 0 612 288" xml:space="preserve">
<g>
	<rect y="151.664" fill="#2E3192" width="109.296" height="136.143"/>
	<path fill="#F9ED32" d="M45.674,195.691H24.855v-14.724h59.586v14.724H63.274v62.808h-17.6V195.691z"/>
</g>
<g>
	<rect x="124.236" y="151.664" fill="#2E3192" width="109.296" height="136.14"/>
	<path fill="#F9ED32" d="M187.684,180.968v77.531h-17.6v-77.531H187.684z"/>
</g>
<g>
	<rect x="247.932" y="151.664" fill="#2E3192" width="109.296" height="136.143"/>
	<path fill="#F9ED32" d="M332.37,256.37c-3.219,1.609-10.466,3.337-19.897,3.337c-26.801,0-40.604-16.679-40.604-38.767
		c0-26.456,18.864-41.18,42.328-41.18c9.09,0,15.988,1.839,19.095,3.452l-3.562,13.918c-3.567-1.497-8.517-2.876-14.724-2.876
		c-13.921,0-24.735,8.398-24.735,25.653c0,15.527,9.202,25.307,24.847,25.307c5.291,0,11.156-1.151,14.611-2.534L332.37,256.37z"/>
</g>
<g>
	<rect x="375.592" y="151.664" fill="#2E3192" width="109.293" height="136.143"/>
	<path fill="#F9ED32" d="M398.489,180.968h17.37v34.279h0.342c1.725-2.992,3.567-5.75,5.292-8.514l17.601-25.765h21.51
		l-25.65,33.012l27.032,44.52h-20.477l-18.981-33.475l-6.668,8.168v25.307h-17.37V180.968z"/>
</g>
<g>
	<rect x="502.704" y="151.661" fill="#2E3192" width="109.296" height="136.145"/>
	<path fill="#F9ED32" d="M528.079,182.291c5.634-0.921,14.032-1.61,23.347-1.61c11.505,0,19.555,1.725,25.076,6.098
		c4.602,3.68,7.135,9.083,7.135,16.218c0,9.893-7.017,16.679-13.69,19.094v0.346c5.404,2.185,8.398,7.362,10.354,14.493
		c2.416,8.744,4.831,18.864,6.325,21.855h-17.942c-1.264-2.186-3.106-8.511-5.409-18.061c-2.067-9.663-5.404-12.308-12.539-12.42
		h-5.286v30.481h-17.369V182.291z M545.448,215.648h6.898c8.741,0,13.921-4.371,13.921-11.156c0-7.132-4.832-10.696-12.887-10.814
		c-4.253,0-6.669,0.348-7.933,0.579V215.648z"/>
</g>
<g>
	<rect x="0.889" fill="#2E3192" width="109.296" height="136.14"/>
	<path fill="#E6E7E8" d="M26.78,30.223c4.601-0.918,13.918-1.606,22.659-1.606c10.702,0,17.257,1.033,22.892,4.37
		c5.407,2.876,9.32,8.166,9.32,15.185c0,6.898-4.028,13.342-12.769,16.561v0.23c8.856,2.416,15.415,9.089,15.415,19.094
		c0,7.019-3.222,12.538-8.056,16.451c-5.635,4.485-15.066,7.016-30.481,7.016c-8.628,0-15.066-0.576-18.979-1.149V30.223z
		 M44.15,59.9h5.75c9.202,0,14.151-3.795,14.151-9.544c0-5.868-4.488-8.974-12.423-8.974c-3.794,0-5.982,0.23-7.477,0.461V59.9z
		 M44.15,94.297c1.725,0.23,3.795,0.23,6.786,0.23c7.938,0,14.954-2.994,14.954-11.16c0-7.822-7.017-10.929-15.76-10.929h-5.98
		V94.297z"/>
</g>
<g>
	<rect x="126.566" fill="#2E3192" width="109.295" height="136.142"/>
	<path fill="#E6E7E8" d="M167.119,28.672v44.631c0,13.342,5.062,20.128,14.033,20.128c9.207,0,14.263-6.438,14.263-20.128V28.672
		h17.487v43.48c0,23.925-12.078,35.315-32.323,35.315c-19.555,0-31.06-10.811-31.06-35.545v-43.25H167.119z"/>
</g>
<g>
	<rect x="250.812" fill="#2E3192" width="109.29" height="136.142"/>
	<path fill="#E6E7E8" d="M282.394,88.831c4.719,2.416,11.965,4.831,19.442,4.831c8.05,0,12.309-3.337,12.309-8.396
		c0-4.831-3.686-7.592-13-10.929c-12.881-4.485-21.279-11.617-21.279-22.892c0-13.227,11.039-23.35,29.33-23.35
		c8.74,0,15.184,1.84,19.785,3.913l-3.91,14.146c-3.106-1.495-8.629-3.68-16.218-3.68c-7.595,0-11.275,3.452-11.275,7.477
		c0,4.946,4.371,7.134,14.381,10.926c13.685,5.062,20.128,12.196,20.128,23.122c0,12.999-10.005,24.043-31.29,24.043
		c-8.854,0-17.595-2.303-21.971-4.719L282.394,88.831z"/>
</g>
</svg>
